<svg xmlns="http://www.w3.org/2000/svg"  viewBox="0 0 100 100" width="100px" height="100px"><path fill="#c7ede6" d="M87.3,56.7c1.1-2.2,1.8-4.6,1.8-7.2c0-6.6-4.2-12.3-10-14.5c0,0,0,0,0,0c0-11.6-9.4-21-21-21 c-9.8,0-18,6.7-20.3,15.8c-1.5-0.5-3-0.8-4.7-0.8c-7.7,0-14,5.8-14.9,13.3C13,43.4,9.1,48,9.1,53.5c0,6.4,5.1,11.5,11.5,11.5 c0.2,0,0.4,0,0.5,0c0,0.2,0,0.3,0,0.5c0,11.3,9.2,20.5,20.5,20.5c6.4,0,12.2-3,15.9-7.6c2.2,2.2,5.2,3.6,8.6,3.6 c4.7,0,8.7-2.7,10.7-6.5c1.1,0.3,2.2,0.5,3.3,0.5c6.1,0,11-4.9,11-11C91.1,61.7,89.7,58.7,87.3,56.7z"/><path fill="#78cdd4" d="M41.5 48.9H44.5V58.099999999999994H41.5z"/><path fill="#472b29" d="M41.6 58c-.3 0-.5-.2-.5-.5v-8c0-.3.2-.5.5-.5s.5.2.5.5v8C42.1 57.8 41.9 58 41.6 58zM44.6 58c-.3 0-.5-.2-.5-.5v-8c0-.3.2-.5.5-.5s.5.2.5.5v8C45.1 57.8 44.9 58 44.6 58z"/><path fill="#78cdd4" d="M53.9 43.1H56.9V52.3H53.9z" transform="rotate(-62.528 55.446 47.646)"/><path fill="#472b29" d="M58.4 51.3c-.1 0-.2 0-.2-.1L51 47.5c-.2-.1-.3-.4-.2-.7.1-.2.4-.3.7-.2l7.1 3.7c.2.1.3.4.2.7C58.7 51.2 58.5 51.3 58.4 51.3zM59.8 48.6c-.1 0-.2 0-.2-.1l-7.1-3.7c-.2-.1-.3-.4-.2-.7.1-.2.4-.3.7-.2l7.1 3.7c.2.1.3.4.2.7C60.1 48.5 59.9 48.6 59.8 48.6z"/><path fill="#78cdd4" d="M51.2 58.1H60.400000000000006V61.1H51.2z" transform="rotate(-27.472 55.738 59.605)"/><path fill="#472b29" d="M52.8 63.2c-.2 0-.4-.1-.4-.3-.1-.2 0-.5.2-.7l7.1-3.7c.2-.1.5 0 .7.2.1.2 0 .5-.2.7L53 63.2C53 63.2 52.9 63.2 52.8 63.2zM51.4 60.6c-.2 0-.4-.1-.4-.3-.1-.2 0-.5.2-.7l7.1-3.7c.2-.1.5 0 .7.2.1.2 0 .5-.2.7l-7.1 3.7C51.6 60.6 51.5 60.6 51.4 60.6z"/><path fill="#fdfcef" d="M78.9,36.5c0,0,3.6,0,6.1,0s4.5-2,4.5-4.5c0-2.3-1.8-4.2-4.1-4.5c0-0.2,0.1-0.4,0.1-0.5c0-2.5-2-4.5-4.5-4.5 c-1.4,0-2.7,0.7-3.5,1.7c-0.1-2.6-2.3-4.7-5-4.7c-2.8,0-5,2.2-5,5c0,0.4,0.1,0.9,0.2,1.3C67,25,66.1,24.5,65,24.5 c-1.8,0-3.2,1.3-3.5,3.1c-0.2,0-0.4-0.1-0.5-0.1c-2.5,0-4.5,2-4.5,4.5s2,4.5,4.5,4.5s9.5,0,9.5,0h5.4V37h3V36.5z"/><path fill="#472b29" d="M72.5,19c-3,0-5.5,2.5-5.5,5.5c0,0,0,0,0,0c-0.6-0.4-1.3-0.5-2-0.5c-1.8,0-3.4,1.3-3.9,3c0,0-0.1,0-0.1,0 c-2.8,0-5,2.2-5,5s2.2,5,5,5h14.9c0.3,0,0.5-0.2,0.5-0.5S76.2,36,75.9,36H61c-2.2,0-4-1.8-4-4s1.8-4,4-4c0.1,0,0.2,0,0.3,0l0.1,0 c0,0,0,0,0.1,0c0.2,0,0.5-0.2,0.5-0.4c0.2-1.5,1.5-2.6,3-2.6c0.9,0,1.7,0.4,2.3,1.1c0.1,0.1,0.2,0.2,0.4,0.2c0.1,0,0.2,0,0.2-0.1 c0.2-0.1,0.3-0.3,0.3-0.6c-0.1-0.4-0.2-0.8-0.2-1.2c0-2.5,2-4.5,4.5-4.5c2.4,0,4.3,1.9,4.5,4.3c0,0.2,0.2,0.4,0.3,0.5 c0.1,0,0.1,0,0.2,0c0.2,0,0.3-0.1,0.4-0.2c0.8-1,1.9-1.5,3.1-1.5c2.2,0,4,1.8,4,4c0,0.1,0,0.2,0,0.3l0,0.1c0,0.1,0,0.3,0.1,0.4 s0.2,0.2,0.3,0.2c2.1,0.2,3.6,1.9,3.6,4c0,2.2-1.8,4-4,4h-6.1c-0.3,0-0.5,0.2-0.5,0.5s0.2,0.5,0.5,0.5H85c2.8,0,5-2.2,5-5 c0-2.4-1.7-4.4-4-4.9c0,0,0-0.1,0-0.1c0-2.8-2.2-5-5-5c-1.2,0-2.3,0.4-3.2,1.2C77.2,20.8,75.1,19,72.5,19L72.5,19z"/><path fill="#472b29" d="M71 26c-1.4 0-2.6 1-2.9 2.3-.4-.2-.8-.3-1.2-.3-1.2 0-2.2.9-2.4 2.1-.2 0-.4-.1-.6-.1-1.5 0-2.8 1.2-2.9 2.7 0 .1.1.3.2.3 0 0 0 0 0 0 .1 0 .2-.1.2-.2.1-1.3 1.2-2.3 2.4-2.3.2 0 .5 0 .7.1 0 0 0 0 .1 0 .1 0 .1 0 .2-.1.1 0 .1-.1.1-.2 0-1 .8-1.9 1.9-1.9.4 0 .9.2 1.2.5 0 0 .1.1.2.1 0 0 .1 0 .1 0 .1 0 .1-.1.2-.2.1-1.3 1.2-2.3 2.5-2.3.2 0 .4 0 .7.1 0 0 0 0 .1 0 .1 0 .2-.1.2-.2 0-.1 0-.3-.2-.3C71.5 26 71.3 26 71 26L71 26zM84.9 27.5c-1.3 0-2.5.9-2.9 2.2 0 .1 0 .3.2.3 0 0 0 0 .1 0 .1 0 .2-.1.2-.2.3-1.1 1.3-1.8 2.4-1.8.1 0 .2 0 .3 0 0 0 0 0 0 0 .1 0 .2-.1.2-.2 0-.1-.1-.3-.2-.3C85.2 27.5 85 27.5 84.9 27.5L84.9 27.5z"/><path fill="#fff" d="M49.7 21h-9.9c-.3 0-.5-.2-.5-.5s.2-.5.5-.5h9.9c.3 0 .5.2.5.5S50 21 49.7 21zM52.8 21h-1c-.3 0-.5-.2-.5-.5s.2-.5.5-.5h1c.3 0 .5.2.5.5S53.1 21 52.8 21zM57.8 23h-9c-.3 0-.5-.2-.5-.5s.2-.5.5-.5h9c.3 0 .5.2.5.5S58.1 23 57.8 23zM46.8 23h-1c-.3 0-.5-.2-.5-.5s.2-.5.5-.5h1c.3 0 .5.2.5.5S47.1 23 46.8 23zM43.8 23h-2c-.3 0-.5-.2-.5-.5s.2-.5.5-.5h2c.3 0 .5.2.5.5S44.1 23 43.8 23zM49.8 25h-2c-.3 0-.5-.2-.5-.5s.2-.5.5-.5h2c.3 0 .5.2.5.5S50.1 25 49.8 25zM52.8 16c-.2 0-.8 0-1 0-.3 0-.5.2-.5.5s.2.5.5.5c.2 0 .8 0 1 0 .3 0 .5-.2.5-.5S53.1 16 52.8 16zM52.8 18c-.2 0-4.8 0-5 0-.3 0-.5.2-.5.5s.2.5.5.5c.2 0 4.8 0 5 0 .3 0 .5-.2.5-.5S53.1 18 52.8 18zM57.8 20c-.2 0-2.8 0-3 0-.3 0-.5.2-.5.5s.2.5.5.5c.2 0 2.8 0 3 0 .3 0 .5-.2.5-.5S58.1 20 57.8 20z"/><g><path fill="#fff" d="M82.5 68h-10c-.3 0-.5-.2-.5-.5s.2-.5.5-.5h10c.3 0 .5.2.5.5S82.8 68 82.5 68zM86.5 68h-2c-.3 0-.5-.2-.5-.5s.2-.5.5-.5h2c.3 0 .5.2.5.5S86.8 68 86.5 68zM91.5 70h-10c-.3 0-.5-.2-.5-.5s.2-.5.5-.5h10c.3 0 .5.2.5.5S91.8 70 91.5 70zM79.5 70h-1c-.3 0-.5-.2-.5-.5s.2-.5.5-.5h1c.3 0 .5.2.5.5S79.8 70 79.5 70zM76.4 70h-1.9c-.3 0-.5-.2-.5-.5s.2-.5.5-.5h1.9c.3 0 .5.2.5.5S76.7 70 76.4 70zM85.5 66h-5c-.3 0-.5-.2-.5-.5s.2-.5.5-.5h5c.3 0 .5.2.5.5S85.8 66 85.5 66zM82.5 72h-2c-.3 0-.5-.2-.5-.5s.2-.5.5-.5h2c.3 0 .5.2.5.5S82.8 72 82.5 72z"/></g><g><path fill="#fdfcef" d="M24.5,60.5c0,0,1.6,0,3.5,0s3.5-1.6,3.5-3.5c0-1.8-1.3-3.2-3.1-3.5c0-0.2,0.1-0.4,0.1-0.5 c0-1.9-1.6-3.5-3.5-3.5c-1,0-2,0.5-2.6,1.2c-0.4-1.8-2-3.2-3.9-3.2c-2.2,0-4,1.8-4,4c0,0.2,0,0.4,0.1,0.6c-0.4-0.3-1-0.6-1.6-0.6 c-1.2,0-2.2,0.9-2.5,2.1c-0.2,0-0.4-0.1-0.5-0.1c-1.9,0-3.5,1.6-3.5,3.5s1.6,3.5,3.5,3.5s7.5,0,7.5,0V61h7V60.5z"/><path fill="#472b29" d="M26.3 56c-.1 0-.3-.1-.3-.3 0-1.2 1-2.2 2.2-2.2 0 0 .7 0 1.2.1.1 0 .2.2.2.3 0 .1-.2.2-.3.2C28.9 54 28.2 54 28.2 54c-.9 0-1.7.8-1.7 1.7C26.5 55.9 26.4 56 26.3 56zM19.5 60A.5.5 0 1 0 19.5 61 .5.5 0 1 0 19.5 60z"/><path fill="#472b29" d="M28,61h-3.5c-0.3,0-0.5-0.2-0.5-0.5s0.2-0.5,0.5-0.5H28c1.7,0,3-1.3,3-3c0-1.5-1.1-2.8-2.6-3 c-0.1,0-0.3-0.1-0.3-0.2s-0.1-0.2-0.1-0.4c0-0.2,0-0.3,0-0.5c0-1.7-1.3-3-3-3c-0.9,0-1.6,0.4-2.2,1c-0.1,0.1-0.3,0.2-0.5,0.1 c-0.2,0-0.3-0.2-0.4-0.4c-0.3-1.6-1.8-2.8-3.4-2.8c-1.9,0-3.5,1.6-3.5,3.5c0,0.1,0,0.3,0,0.4c0,0.2-0.1,0.4-0.2,0.5 s-0.4,0.1-0.6,0C13.9,52.2,13.4,52,13,52c-1,0-1.8,0.7-2,1.6c0,0.3-0.3,0.4-0.6,0.4c-0.2,0-0.3,0-0.5,0c-1.7,0-3,1.3-3,3 s1.3,3,3,3h7.5c0.3,0,0.5,0.2,0.5,0.5S17.8,61,17.5,61H10c-2.2,0-4-1.8-4-4s1.8-4,4-4c0.1,0,0.1,0,0.2,0c0.4-1.2,1.5-2,2.8-2 c0.3,0,0.7,0.1,1,0.2c0.2-2.3,2.1-4.2,4.5-4.2c1.8,0,3.5,1.1,4.2,2.8c0.7-0.5,1.5-0.8,2.3-0.8c2.2,0,4,1.8,4,4c0,0,0,0.1,0,0.1 c1.7,0.4,3,2,3,3.9C32,59.2,30.2,61,28,61z"/><path fill="#472b29" d="M22.5,60c-0.2,0-0.8,0-1,0c-0.3,0-0.5,0.2-0.5,0.5s0.2,0.5,0.5,0.5c0.2,0,0.8,0,1,0c0.3,0,0.5-0.2,0.5-0.5 S22.8,60,22.5,60z"/></g><g><path fill="#78cdd4" d="M68 43.7A9.3 9.3 0 1 0 68 62.3A9.3 9.3 0 1 0 68 43.7Z"/><path fill="#472b29" d="M68,44.4c4.7,0,8.6,3.9,8.6,8.6s-3.9,8.6-8.6,8.6s-8.6-3.9-8.6-8.6S63.3,44.4,68,44.4 M68,43 c-5.5,0-10,4.5-10,10s4.5,10,10,10s10-4.5,10-10S73.5,43,68,43L68,43z"/></g><g><path fill="#472b29" d="M68.2 59.2c-3.4 0-6.1-2.7-6.1-6.1 0-3.4 2.7-6.1 6.1-6.1.3 0 .5.2.5.5s-.2.5-.5.5c-2.8 0-5.1 2.3-5.1 5.1s2.3 5.1 5.1 5.1 5.1-2.3 5.1-5.1c0-.3.2-.5.5-.5s.5.2.5.5C74.3 56.4 71.5 59.2 68.2 59.2zM73.2 51c-.2 0-.4-.1-.4-.3-.5-.9-1.2-1.7-2.1-2.2-.2-.1-.3-.4-.2-.7.1-.2.4-.3.7-.2 1.1.6 2 1.5 2.5 2.6.1.2 0 .5-.2.7C73.3 51 73.3 51 73.2 51z"/></g><g><path fill="#78cdd4" d="M43 31.7A9.3 9.3 0 1 0 43 50.3A9.3 9.3 0 1 0 43 31.7Z"/><path fill="#472b29" d="M43,32.4c4.7,0,8.6,3.9,8.6,8.6s-3.9,8.6-8.6,8.6s-8.6-3.9-8.6-8.6S38.3,32.4,43,32.4 M43,31 c-5.5,0-10,4.5-10,10s4.5,10,10,10s10-4.5,10-10S48.5,31,43,31L43,31z"/></g><g><path fill="#472b29" d="M42.8 47c-3.4 0-6.1-2.7-6.1-6.1s2.7-6.1 6.1-6.1c.3 0 .5.2.5.5s-.2.5-.5.5c-2.8 0-5.1 2.3-5.1 5.1S40 46 42.8 46s5.1-2.3 5.1-5.1c0-.3.2-.5.5-.5s.5.2.5.5C49 44.2 46.2 47 42.8 47zM47.9 38.8c-.2 0-.4-.1-.4-.3-.5-.9-1.2-1.7-2.1-2.2-.2-.1-.3-.4-.2-.7.1-.2.4-.3.7-.2 1.1.6 2 1.5 2.5 2.6.1.2 0 .5-.2.7C48 38.8 48 38.8 47.9 38.8z"/></g><g><path fill="#78cdd4" d="M43 56.7A9.3 9.3 0 1 0 43 75.3A9.3 9.3 0 1 0 43 56.7Z"/><path fill="#472b29" d="M43,57.4c4.7,0,8.6,3.9,8.6,8.6s-3.9,8.6-8.6,8.6s-8.6-3.9-8.6-8.6S38.3,57.4,43,57.4 M43,56 c-5.5,0-10,4.5-10,10s4.5,10,10,10s10-4.5,10-10S48.5,56,43,56L43,56z"/></g><g><path fill="#472b29" d="M42.8 72.3c-3.4 0-6.1-2.7-6.1-6.1s2.7-6.1 6.1-6.1c.3 0 .5.2.5.5S43.1 61 42.8 61c-2.8 0-5.1 2.3-5.1 5.1s2.3 5.1 5.1 5.1S48 69 48 66.2c0-.3.2-.5.5-.5s.5.2.5.5C49 69.5 46.2 72.3 42.8 72.3zM47.9 64.2c-.2 0-.4-.1-.4-.3-.5-.9-1.2-1.7-2.1-2.2-.2-.1-.3-.4-.2-.7.1-.2.4-.3.7-.2 1.1.6 2 1.5 2.5 2.6.1.2 0 .5-.2.7C48 64.1 48 64.2 47.9 64.2z"/></g></svg>